<svg width="3975" height="1000" viewBox="0 0 3975 1000" fill="none" xmlns="http://www.w3.org/2000/svg">
<g clip-path="url(#clip0_8_103)">
<path d="M572.57 263.78H468.52C464.8 230.16 449.44 204.06 422.44 185.48C395.44 166.893 361.456 157.6 320.49 157.6C291.17 157.6 265.803 162.277 244.39 171.63C222.976 180.977 206.393 193.76 194.64 209.98C182.88 226.193 177 244.6 177 265.2C177 282.48 181.016 297.393 189.05 309.94C197.083 322.487 207.673 332.963 220.82 341.37C233.966 349.777 248.106 356.76 263.24 362.32C278.366 367.887 292.913 372.443 306.88 375.99L376.71 394.46C399.516 400.14 422.906 407.833 446.88 417.54C470.853 427.247 493.08 440.03 513.56 455.89C534.04 471.757 550.626 491.407 563.32 514.84C576 538.28 582.34 566.337 582.34 599.01C582.34 640.203 571.926 676.78 551.1 708.74C530.26 740.7 500.116 765.913 460.67 784.38C421.216 802.84 373.56 812.07 317.7 812.07C264.173 812.07 217.856 803.43 178.75 786.15C139.65 768.87 109.043 744.307 86.9298 712.46C64.8231 680.62 52.6065 642.803 50.2798 599.01H158.5C160.6 625.283 169.04 647.12 183.82 664.52C198.6 681.927 217.566 694.83 240.72 703.23C263.873 711.637 289.3 715.84 317 715.84C347.493 715.84 374.666 710.927 398.52 701.1C422.38 691.273 441.176 677.543 454.91 659.91C468.636 642.27 475.5 621.613 475.5 597.94C475.5 576.4 469.51 558.763 457.53 545.03C445.543 531.297 429.366 519.933 409 510.94C388.633 501.94 365.65 494.007 340.05 487.14L255.56 463.71C198.306 447.843 152.98 424.523 119.58 393.75C86.1798 362.977 69.4798 322.257 69.4798 271.59C69.4798 229.69 80.6498 193.113 102.99 161.86C125.336 130.613 155.596 106.287 193.77 88.8801C231.936 71.4801 274.993 62.7801 322.94 62.7801C371.346 62.7801 414.113 71.4234 451.24 88.7101C488.366 105.99 517.636 129.723 539.05 159.91C560.463 190.09 571.636 224.713 572.57 263.78ZM809.71 254.55H919.68V339.77H809.71V639.84C809.71 660.44 812.733 675.89 818.78 686.19C824.84 696.483 832.696 703.467 842.35 707.14C852.01 710.807 862.543 712.64 873.95 712.64C882.323 712.64 889.653 712.05 895.94 710.87C902.226 709.683 907.116 708.737 910.61 708.03L929.45 795.74C923.403 798.107 914.796 800.533 903.63 803.02C892.45 805.507 878.483 806.867 861.73 807.1C834.263 807.573 808.66 802.603 784.92 792.19C761.173 781.77 741.97 765.67 727.31 743.89C712.65 722.11 705.32 694.767 705.32 661.86V339.77H626.77V254.55H705.32V123.86H809.71V254.55ZM1105.86 800H1001.47V254.55H1102.37V341.19H1107.95C1117.72 311.837 1135 288.697 1159.79 271.77C1184.58 254.843 1212.68 246.38 1244.11 246.38C1250.62 246.38 1258.36 246.617 1267.33 247.09C1276.29 247.563 1283.33 248.153 1288.45 248.86V350.43C1284.26 349.243 1276.81 347.88 1266.1 346.34C1255.39 344.8 1244.69 344.03 1233.98 344.03C1209.31 344.03 1187.37 349.3 1168.17 359.84C1148.97 370.373 1133.78 384.933 1122.61 403.52C1111.44 422.1 1105.86 443.227 1105.86 466.9V800ZM1501.85 812.07C1467.87 812.07 1437.15 805.62 1409.68 792.72C1382.21 779.82 1360.51 761.057 1344.57 736.43C1328.62 711.81 1320.65 681.627 1320.65 645.88C1320.65 615.107 1326.47 589.777 1338.11 569.89C1349.74 550.003 1365.45 534.26 1385.24 522.66C1405.03 511.06 1427.14 502.3 1451.58 496.38C1476.02 490.46 1500.92 485.96 1526.28 482.88C1558.41 479.093 1584.48 475.957 1604.49 473.47C1624.51 470.983 1639.06 466.9 1648.13 461.22C1657.21 455.54 1661.75 446.307 1661.75 433.52V431.04C1661.75 400.027 1653.2 375.997 1636.09 358.95C1618.98 341.903 1593.56 333.38 1559.81 333.38C1524.66 333.38 1497.02 341.253 1476.89 357C1456.76 372.74 1442.85 390.2 1435.17 409.38L1337.06 386.65C1348.7 353.503 1365.75 326.69 1388.21 306.21C1410.68 285.737 1436.57 270.823 1465.89 261.47C1495.22 252.117 1526.05 247.44 1558.4 247.44C1579.82 247.44 1602.57 249.987 1626.66 255.08C1650.75 260.167 1673.32 269.457 1694.39 282.95C1715.46 296.45 1732.74 315.687 1746.24 340.66C1759.73 365.64 1766.48 398.013 1766.48 437.78V800H1664.54V725.43H1660.35C1653.6 739.157 1643.48 752.65 1629.98 765.91C1616.48 779.17 1599.14 790.177 1577.96 798.93C1556.78 807.69 1531.41 812.07 1501.85 812.07ZM1524.54 726.85C1553.4 726.85 1578.13 721.05 1598.73 709.45C1619.33 697.85 1635.04 682.637 1645.86 663.81C1656.68 644.99 1662.09 624.81 1662.09 603.27V532.95C1658.37 536.743 1651.21 540.237 1640.62 543.43C1630.04 546.623 1618 549.347 1604.49 551.6C1590.99 553.847 1577.84 555.857 1565.04 557.63C1552.24 559.41 1541.53 560.89 1532.92 562.07C1512.67 564.677 1494.23 569.057 1477.59 575.21C1460.95 581.37 1447.68 590.19 1437.78 601.67C1427.89 613.15 1422.95 628.36 1422.95 647.3C1422.95 673.58 1432.49 693.407 1451.58 706.78C1470.67 720.16 1494.99 726.85 1524.54 726.85ZM1976.4 1004.55H1872.01V254.55H1973.95V342.97H1982.68C1988.73 331.603 1997.46 318.463 2008.87 303.55C2020.27 288.637 2036.1 275.557 2056.35 264.31C2076.6 253.063 2103.36 247.44 2136.64 247.44C2179.94 247.44 2218.58 258.567 2252.55 280.82C2286.54 303.073 2313.25 335.153 2332.68 377.06C2352.11 418.96 2361.83 469.387 2361.83 528.34C2361.83 587.287 2352.17 637.77 2332.86 679.79C2313.53 721.817 2287 754.133 2253.25 776.74C2219.5 799.347 2180.99 810.65 2137.7 810.65C2105.11 810.65 2078.51 805.087 2057.92 793.96C2037.32 782.833 2021.2 769.813 2009.56 754.9C1997.93 739.987 1988.97 726.73 1982.68 715.13H1976.4V1004.55ZM1974.31 527.27C1974.31 565.623 1979.78 599.243 1990.72 628.13C2001.66 657.01 2017.48 679.557 2038.19 695.77C2058.91 711.99 2084.28 720.1 2114.31 720.1C2145.49 720.1 2171.55 711.637 2192.5 694.71C2213.45 677.783 2229.34 654.76 2240.17 625.64C2250.99 596.52 2256.4 563.73 2256.4 527.27C2256.4 491.29 2251.1 458.977 2240.51 430.33C2229.92 401.683 2214.09 379.073 2193.03 362.5C2171.97 345.927 2145.73 337.64 2114.31 337.64C2084.05 337.64 2058.5 345.57 2037.67 361.43C2016.84 377.297 2001.07 399.433 1990.36 427.84C1979.66 456.247 1974.31 489.39 1974.31 527.27ZM2549.75 800H2445.37V254.55H2549.75V800ZM2498.08 170.38C2479.93 170.38 2464.39 164.167 2451.47 151.74C2438.55 139.313 2432.09 124.457 2432.09 107.17C2432.09 89.6501 2438.55 74.6768 2451.47 62.2501C2464.39 49.8234 2479.93 43.6101 2498.08 43.6101C2516.23 43.6101 2531.77 49.8234 2544.69 62.2501C2557.6 74.6768 2564.06 89.6501 2564.06 107.17C2564.06 124.457 2557.6 139.313 2544.69 151.74C2531.77 164.167 2516.23 170.38 2498.08 170.38ZM3003.35 254.55H3115.42L2920.96 800H2809.23L2614.43 254.55H2726.49L2862.3 674.29H2867.89L3003.35 254.55Z" fill="#1A1A1F"/>
<path d="M3850.21 580C3850.21 409.808 3712.24 271.84 3542.05 271.84C3371.86 271.84 3233.89 409.808 3233.89 580C3233.89 750.192 3371.86 888.161 3542.05 888.161C3712.24 888.161 3850.21 750.192 3850.21 580ZM3924.19 580C3924.19 791.05 3753.1 962.14 3542.05 962.14C3331 962.14 3159.91 791.05 3159.91 580C3159.91 368.95 3331 197.86 3542.05 197.86C3753.1 197.86 3924.19 368.95 3924.19 580Z" fill="#0082E6"/>
</g>
<defs>
<clipPath id="clip0_8_103">
<rect width="3974.49" height="1000" fill="white"/>
</clipPath>
</defs>
</svg>
